<svg width="12" height="14" viewBox="0 0 12 14" fill="none" xmlns="http://www.w3.org/2000/svg">
<path d="M4 4V5.27889C4 5.82998 3.35724 6.13104 2.93388 5.77823L0.599213 3.83268C0.287373 3.57281 0.287372 3.09386 0.599213 2.83399L2.93388 0.888433C3.35724 0.535631 4 0.836683 4 1.38778V2.66667H6.66667C8.08115 2.66667 9.43771 3.22857 10.4379 4.22876C11.4381 5.22896 12 6.58551 12 8C12 9.41449 11.4381 10.771 10.4379 11.7712C9.43771 12.7714 8.08115 13.3333 6.66667 13.3333H4.66667C4.29848 13.3333 4 13.0349 4 12.6667C4 12.2985 4.29848 12 4.66667 12H6.66667C7.72753 12 8.74495 11.5786 9.49509 10.8284C10.2452 10.0783 10.6667 9.06087 10.6667 8C10.6667 6.93913 10.2452 5.92172 9.49509 5.17157C8.74495 4.42143 7.72753 4 6.66667 4H4Z" fill="#1A1919"/>
</svg>
