<svg width="31" height="28" viewBox="0 0 31 28" fill="none" xmlns="http://www.w3.org/2000/svg">
<path d="M29.0656 20.5097C32.0613 16.3067 31.6033 10.5484 27.5117 6.79748C25.6422 5.0837 23.2589 4.0168 20.6844 3.71885C20.6683 3.69911 20.6519 3.67955 20.6339 3.66084C18.3943 1.33433 15.1766 0 11.8059 0C5.39164 0 0 4.77915 0 10.8984C0 13.0439 0.666439 15.1006 1.93241 16.8769L0.1639 22.4294C0.0527363 22.7784 0.162084 23.1599 0.441144 23.3971C0.720689 23.6346 1.11503 23.6803 1.44083 23.5146L6.81903 20.7799C7.92353 21.2555 9.09474 21.5675 10.3076 21.7095C12.6473 24.1699 15.8823 25.4297 19.1921 25.4297C20.9126 25.4297 22.6269 25.0791 24.1788 24.4126L29.5572 27.1475C29.6875 27.2137 29.8285 27.2461 29.9686 27.2461C30.5816 27.2461 31.0209 26.6488 30.8342 26.0622L29.0656 20.5097ZM7.18558 18.9524C6.93122 18.8316 6.63533 18.8356 6.38436 18.9633L2.55375 20.9111L3.80464 16.9836C3.89571 16.6977 3.8397 16.3853 3.65491 16.1488C2.45209 14.6091 1.81628 12.7936 1.81628 10.8984C1.81628 5.8906 6.2976 1.81641 11.8059 1.81641C14.0241 1.81641 16.1595 2.48842 17.8917 3.69857C12.0582 4.28514 7.38623 8.84154 7.38623 14.5312C7.38623 16.3009 7.83985 18.0046 8.69507 19.531C8.17728 19.3768 7.67298 19.1839 7.18558 18.9524ZM24.6137 22.596C24.3664 22.4703 24.0702 22.4627 23.8125 22.5853C22.3966 23.2578 20.7989 23.6133 19.1921 23.6133C13.6838 23.6133 9.20252 19.5391 9.20252 14.5312C9.20252 9.52342 13.6838 5.44922 19.1921 5.44922C24.7005 5.44922 29.1818 9.52342 29.1818 14.5312C29.1818 16.4264 28.546 18.2419 27.3431 19.7816C27.1584 20.018 27.1023 20.3304 27.1933 20.6164L28.4442 24.5438L24.6137 22.596Z" fill="black"/>
<path d="M24.6137 22.596C24.3664 22.4703 24.0702 22.4627 23.8125 22.5853C22.3966 23.2578 20.7989 23.6133 19.1921 23.6133C13.6838 23.6133 9.20252 19.5391 9.20252 14.5312C9.20252 9.52342 13.6838 5.44922 19.1921 5.44922C24.7005 5.44922 29.1818 9.52342 29.1818 14.5312C29.1818 16.4264 28.546 18.2419 27.3431 19.7816C27.1584 20.018 27.1023 20.3304 27.1933 20.6164L28.4442 24.5438L24.6137 22.596Z" fill="white"/>
<path d="M7.18558 18.9524C6.93122 18.8316 6.63533 18.8356 6.38436 18.9633L2.55375 20.9111L3.80464 16.9836C3.89571 16.6977 3.8397 16.3853 3.65491 16.1488C2.45209 14.6091 1.81628 12.7936 1.81628 10.8984C1.81628 5.8906 6.2976 1.81641 11.8059 1.81641C14.0241 1.81641 16.1595 2.48842 17.8917 3.69857C12.0582 4.28514 7.38623 8.84154 7.38623 14.5312C7.38623 16.3009 7.83985 18.0046 8.69507 19.531C8.17728 19.3768 7.67298 19.1839 7.18558 18.9524Z" fill="white"/>
<path d="M15.499 15.4395C16.0006 15.4395 16.4072 15.0328 16.4072 14.5312C16.4072 14.0297 16.0006 13.623 15.499 13.623C14.9974 13.623 14.5908 14.0297 14.5908 14.5312C14.5908 15.0328 14.9974 15.4395 15.499 15.4395Z" fill="black"/>
<path d="M19.1317 15.4395C19.6332 15.4395 20.0399 15.0328 20.0399 14.5312C20.0399 14.0297 19.6332 13.623 19.1317 13.623C18.6301 13.623 18.2234 14.0297 18.2234 14.5312C18.2234 15.0328 18.6301 15.4395 19.1317 15.4395Z" fill="black"/>
<path d="M22.7642 15.4395C23.2658 15.4395 23.6724 15.0328 23.6724 14.5312C23.6724 14.0297 23.2658 13.623 22.7642 13.623C22.2626 13.623 21.856 14.0297 21.856 14.5312C21.856 15.0328 22.2626 15.4395 22.7642 15.4395Z" fill="black"/>
</svg>
