<svg width="17" height="17" viewBox="0 0 17 17" fill="none" xmlns="http://www.w3.org/2000/svg">
<g clip-path="url(#clip0_578_14443)">
<path d="M14.1667 6.375H7.79167C7.00926 6.375 6.375 7.00926 6.375 7.79167V14.1667C6.375 14.9491 7.00926 15.5833 7.79167 15.5833H14.1667C14.9491 15.5833 15.5833 14.9491 15.5833 14.1667V7.79167C15.5833 7.00926 14.9491 6.375 14.1667 6.375Z" stroke="#1A1919" stroke-width="1.3" stroke-linecap="round" stroke-linejoin="round"/>
<path d="M3.54102 10.6243H2.83268C2.45696 10.6243 2.09662 10.4751 1.83095 10.2094C1.56527 9.94374 1.41602 9.58341 1.41602 9.20768V2.83268C1.41602 2.45696 1.56527 2.09662 1.83095 1.83095C2.09662 1.56527 2.45696 1.41602 2.83268 1.41602H9.20768C9.58341 1.41602 9.94374 1.56527 10.2094 1.83095C10.4751 2.09662 10.6243 2.45696 10.6243 2.83268V3.54102" stroke="#1A1919" stroke-width="1.3" stroke-linecap="round" stroke-linejoin="round"/>
</g>
<defs>
<clipPath id="clip0_578_14443">
<rect width="17" height="17" fill="white"/>
</clipPath>
</defs>
</svg>
