<svg width="27" height="26" viewBox="0 0 27 26" fill="none" xmlns="http://www.w3.org/2000/svg">
<path d="M14.4965 18.1457L17.1459 20.7593L18.4705 19.4475L19.8054 20.7593L18.4705 22.061L20.0622 23.615L24.0464 19.7199L18.4808 14.2305L14.4965 18.1457Z" fill="white"/>
<path d="M11.8386 7.73229L6.27292 2.25293L2.27838 6.1682L3.87004 7.73229L5.20497 6.42048L6.52964 7.73229L5.20497 9.03402L7.8543 11.6476L11.8386 7.73229Z" fill="white"/>
<path d="M2.16654 19.8411C1.79686 20.2044 1.79686 20.7896 2.16654 21.1529L4.82613 23.7665C5.19581 24.1196 5.7914 24.1196 6.16107 23.7665L8.24562 21.6776L4.27162 17.7725L2.18707 19.8512L2.16654 19.8411Z" fill="white"/>
<path d="M23.4427 6.05671L24.2026 2.10107L20.1567 2.8478C19.6022 2.94871 19.0887 3.22117 18.6883 3.61471L5.59564 16.4604L9.5799 20.3757L22.6725 7.5098C23.073 7.11626 23.34 6.61171 23.4427 6.0668V6.05671Z" fill="white"/>
<path d="M26.0517 19.0441L19.8084 12.9189L23.9877 8.81189C24.6552 8.15598 25.107 7.30834 25.2816 6.39007L26.3187 1.09234C26.3701 0.799705 26.2777 0.496977 26.062 0.285068C25.8464 0.0731591 25.5383 -0.0176591 25.2405 0.0227045L19.8494 1.01161C18.915 1.18316 18.0524 1.62716 17.385 2.28307L13.1645 6.39007L6.93139 0.264886C6.56172 -0.0882955 5.96613 -0.0882955 5.59645 0.264886L0.277256 5.49198C-0.0924185 5.85525 -0.0924185 6.43043 0.277256 6.7937L6.52064 12.9189L0.831767 18.4992C-0.266986 19.5789 -0.266986 21.3347 0.831767 22.4144L3.49136 25.028C4.59012 26.1077 6.37688 26.1077 7.47563 25.028L13.1542 19.4376L19.3874 25.5628C19.7468 25.9261 20.3423 25.9261 20.712 25.5628L26.0312 20.3458C26.4009 19.9926 26.4009 19.4073 26.0312 19.0441H26.0517ZM5.20625 9.03389L6.54117 7.72207L5.20625 6.41025L3.87131 7.72207L2.28992 6.16807L6.27419 2.2528L11.8501 7.73216L7.86584 11.6474L5.20625 9.03389ZM6.15097 23.7666C5.78129 24.1198 5.1857 24.1198 4.81603 23.7666L2.15643 21.1531C1.78676 20.7898 1.78676 20.2045 2.15643 19.8412L4.24098 17.7625L8.21498 21.6677L6.13042 23.7565L6.15097 23.7666ZM9.57045 20.366L5.58618 16.4507L18.6788 3.60498C19.0793 3.21143 19.5927 2.93898 20.1472 2.83807L24.1931 2.09134L23.4332 6.04698C23.3305 6.59189 23.0636 7.09643 22.6631 7.48998L9.57045 20.3559V20.366ZM20.0651 23.6152L18.4837 22.0613L19.8186 20.7595L18.4837 19.4477L17.159 20.7595L14.4994 18.146L18.4837 14.2307L24.0494 19.7202L20.0651 23.6152Z" fill="#201F1F"/>
</svg>
