<svg width="10" height="10" viewBox="0 0 10 10" fill="none" xmlns="http://www.w3.org/2000/svg">
<g clip-path="url(#clip0_578_3772)">
<path d="M6.02467 1.35768L6.39134 0.991016C6.82467 0.557682 7.57884 0.557682 8.01217 0.991016L8.30801 1.28685C8.52467 1.50352 8.64551 1.79102 8.64551 2.09518C8.64551 2.39935 8.52467 2.69102 8.30801 2.90352L7.94134 3.27018L6.02467 1.35352V1.35768ZM5.58301 1.79935L1.78717 5.59518C1.66634 5.71602 1.59134 5.87435 1.57884 6.04518L1.46634 7.26602C1.45384 7.42018 1.50801 7.57018 1.61634 7.68268C1.71634 7.78268 1.84551 7.83685 1.98301 7.83685H2.02884L3.24967 7.72435C3.42051 7.70768 3.57884 7.63268 3.69967 7.51185L7.49551 3.71602L5.57884 1.79935H5.58301ZM9.47884 9.16602C9.47884 8.99518 9.33717 8.85352 9.16634 8.85352H0.833008C0.662174 8.85352 0.520508 8.99518 0.520508 9.16602C0.520508 9.33685 0.662174 9.47852 0.833008 9.47852H9.16634C9.33717 9.47852 9.47884 9.33685 9.47884 9.16602Z" fill="black"/>
</g>
<defs>
<clipPath id="clip0_578_3772">
<rect width="10" height="10" fill="white"/>
</clipPath>
</defs>
</svg>
