<svg width="10" height="10" viewBox="0 0 10 10" fill="none" xmlns="http://www.w3.org/2000/svg">
<path d="M3.0957 3.24414L3.56298 2.77686L7.15121 6.36509L6.68393 6.83237L3.0957 3.24414Z" fill="#1A1919"/>
<path d="M4.71786 9.26554H2.686L0.253012 6.83239C0.0913151 6.67343 0.000965923 6.45866 7.5739e-06 6.22988C-0.000950775 5.99928 0.0890679 5.7821 0.253012 5.61816L5.60661 0.264723C5.76603 0.102398 5.98225 0.0117188 6.21331 0.0117188C6.44438 0.0117188 6.66093 0.102233 6.82263 0.266673L9.66258 3.10662C9.82427 3.26558 9.91462 3.48035 9.91558 3.70913C9.91654 3.93973 9.82652 4.15691 9.66258 4.32085L4.71786 9.26554ZM2.95969 8.60461H4.4442L9.1953 3.85351C9.23367 3.81494 9.25465 3.76461 9.25465 3.71167C9.25432 3.66035 9.234 3.61194 9.19722 3.57565L6.3534 0.732001C6.315 0.69294 6.26596 0.672616 6.21364 0.672616C6.16136 0.672616 6.11229 0.69294 6.07617 0.729886L0.720322 6.08547C0.681922 6.12404 0.660938 6.17437 0.660938 6.22731C0.661268 6.27863 0.681592 6.32704 0.718373 6.36333L2.95969 8.60461Z" fill="#1A1919"/>
<path d="M5.94922 8.60547H6.61015V9.2664H5.94922V8.60547Z" fill="#1A1919"/>
<path d="M7.27148 8.60547H8.59334V9.2664H7.27148V8.60547Z" fill="#1A1919"/>
</svg>
