<svg width="12" height="14" viewBox="0 0 12 14" fill="none" xmlns="http://www.w3.org/2000/svg">
<path d="M8 4V5.27889C8 5.82998 8.64276 6.13104 9.06612 5.77823L11.4008 3.83268C11.7126 3.57281 11.7126 3.09386 11.4008 2.83399L9.06612 0.888433C8.64276 0.535631 8 0.836683 8 1.38778V2.66667H5.33333C3.91885 2.66667 2.56229 3.22857 1.5621 4.22876C0.561903 5.22896 0 6.58551 0 8C0 9.41449 0.561903 10.771 1.5621 11.7712C2.56229 12.7714 3.91885 13.3333 5.33333 13.3333H7.33333C7.70152 13.3333 8 13.0349 8 12.6667C8 12.2985 7.70152 12 7.33333 12H5.33333C4.27247 12 3.25505 11.5786 2.50491 10.8284C1.75476 10.0783 1.33333 9.06087 1.33333 8C1.33333 6.93913 1.75476 5.92172 2.50491 5.17157C3.25505 4.42143 4.27247 4 5.33333 4H8Z" fill="#1A1919"/>
</svg>
