<svg width="22" height="22" viewBox="0 0 22 22" fill="none" xmlns="http://www.w3.org/2000/svg">
<rect x="2" y="3" width="19" height="16" rx="2" fill="#FCFCFC"/>
<path d="M17.7031 20.4531H4.29688C1.92754 20.4531 0 18.5255 0 16.1562V5.84375C0 3.47445 1.92754 1.54688 4.29688 1.54688H17.7031C20.0725 1.54688 22 3.47445 22 5.84375V16.1562C22 18.5255 20.0725 20.4531 17.7031 20.4531ZM4.29688 3.26562C2.8753 3.26562 1.71875 4.42217 1.71875 5.84375V16.1562C1.71875 17.5778 2.8753 18.7344 4.29688 18.7344H17.7031C19.1247 18.7344 20.2812 17.5778 20.2812 16.1562V5.84375C20.2812 4.42217 19.1247 3.26562 17.7031 3.26562H4.29688Z" fill="#1A1919"/>
<path d="M7.5625 10.1406C6.14092 10.1406 4.98438 8.98408 4.98438 7.5625C4.98438 6.14092 6.14092 4.98438 7.5625 4.98438C8.98408 4.98438 10.1406 6.14092 10.1406 7.5625C10.1406 8.98408 8.98408 10.1406 7.5625 10.1406ZM7.5625 6.70312C7.08864 6.70312 6.70312 7.08864 6.70312 7.5625C6.70312 8.03636 7.08864 8.42188 7.5625 8.42188C8.03636 8.42188 8.42188 8.03636 8.42188 7.5625C8.42188 7.08864 8.03636 6.70312 7.5625 6.70312Z" fill="#1A1919"/>
<path d="M17.2669 16.7639L12.7183 12.2153L9.88855 15.0452C9.55292 15.3808 9.00876 15.3808 8.67318 15.0452L7.56209 13.9341L4.90417 16.7639C4.10079 17.5673 2.8843 16.3532 3.6888 15.5486L6.95443 12.1111C7.29006 11.7755 7.83421 11.7755 8.1698 12.1111L9.28084 13.2222L12.1106 10.3923C12.4463 10.0567 12.9904 10.0567 13.326 10.3923L18.4823 15.5486C19.2967 16.3632 18.0597 17.5567 17.2669 16.7639Z" fill="#1A1919"/>
</svg>
