<svg width="35" height="36" viewBox="0 0 35 36" fill="none" xmlns="http://www.w3.org/2000/svg">
<path d="M33.8334 27.1077H24.1112V18.9411C24.1112 18.2968 23.5888 17.7744 22.9445 17.7744H12.0555C11.4112 17.7744 10.8889 18.2968 10.8889 18.9411V22.4411H1.16665C0.52234 22.4411 0 22.9634 0 23.6077V34.4966C0 35.1409 0.52234 35.6633 1.16665 35.6633C1.76205 35.6633 33.1654 35.6633 33.8334 35.6633C34.4777 35.6633 35 35.141 35 34.4967V28.2744C35.0001 27.6301 34.4777 27.1077 33.8334 27.1077ZM10.8889 33.33H2.33336V24.7744H10.8889V33.33ZM21.7778 33.33H13.2223C13.2223 32.9976 13.2223 20.4728 13.2223 20.1077H21.7778C21.7778 20.7544 21.7778 32.701 21.7778 33.33ZM32.6667 33.33H24.1112V29.4411H32.6667V33.33Z" fill="black"/>
<path d="M21.7778 33.33H13.2223V20.1077H21.7778V33.33Z" fill="white"/>
<path d="M32.6667 33.33H24.1112V29.4411H32.6667V33.33Z" fill="white"/>
<path d="M10.8889 33.33H2.33336V24.7744H10.8889V33.33Z" fill="white"/>
<path d="M24.2086 5.04302L20.0298 4.4357L18.1611 0.649199C17.7338 -0.21633 16.4959 -0.216469 16.0688 0.649199L14.2 4.43583L10.0212 5.04315C9.0663 5.18177 8.6832 6.35914 9.37466 7.03312L12.3984 9.98048L11.6846 14.1424C11.5216 15.0933 12.5224 15.8217 13.3774 15.3722L17.115 13.4072L20.8525 15.3722C21.7041 15.8196 22.7087 15.0958 22.5453 14.1424L21.8315 9.98055L24.8552 7.03312C25.5461 6.35942 25.1642 5.1817 24.2086 5.04302ZM19.7636 8.73764C19.4886 9.00567 19.3631 9.39183 19.4281 9.77027L19.846 12.2066L17.6579 11.0563C17.3179 10.8776 16.9119 10.8776 16.5721 11.0563L14.3839 12.2067L14.8019 9.77027C14.8668 9.39183 14.7413 9.00567 14.4663 8.73764L12.6962 7.01215L15.1426 6.65663C15.5226 6.6014 15.8509 6.36276 16.021 6.01846L17.115 3.8017L18.2089 6.01846C18.3788 6.36276 18.7073 6.6014 19.0873 6.65663L21.5336 7.01215L19.7636 8.73764Z" fill="black"/>
<path d="M19.7636 8.73764C19.4886 9.00567 19.3631 9.39183 19.4281 9.77027L19.846 12.2066L17.6579 11.0563C17.3179 10.8776 16.9119 10.8776 16.5721 11.0563L14.3839 12.2067L14.8019 9.77027C14.8668 9.39183 14.7413 9.00567 14.4663 8.73764L12.6962 7.01215L15.1426 6.65663C15.5226 6.6014 15.8509 6.36276 16.021 6.01846L17.115 3.8017L18.2089 6.01846C18.3788 6.36276 18.7073 6.6014 19.0873 6.65663L21.5336 7.01215L19.7636 8.73764Z" fill="white"/>
</svg>
