<svg width="22" height="29" viewBox="0 0 22 29" fill="none" xmlns="http://www.w3.org/2000/svg">
<path fill-rule="evenodd" clip-rule="evenodd" d="M0.544348 25.6691C0.214839 25.4361 0 25.0531 0 24.6199V17.8081C0 14.3649 1.38097 11.5083 4.05032 10.4151C4.47902 10.2395 5.26226 10.1082 5.8501 10.0284C5.27807 9.02809 4.94461 7.84296 4.94461 6.57185C4.94461 2.9085 7.69799 0 11 0C14.302 0 17.0554 2.9085 17.0554 6.57185C17.0554 7.84198 16.7226 9.02645 16.1519 10.0268C16.7199 10.1102 17.5513 10.2519 17.9497 10.4151C20.619 11.5083 22 14.3649 22 17.8081V24.6199C22 25.0531 21.7852 25.4361 21.4557 25.6691V26.5861C21.4557 27.2966 20.8774 27.8726 20.164 27.8726H18.5734C18.4894 28.1073 18.3537 28.3233 18.1734 28.5028C17.8538 28.8211 17.4202 29 16.9681 29H5.03193C4.57985 29 4.14621 28.8211 3.82659 28.5028C3.64635 28.3233 3.51059 28.1073 3.42656 27.8726H1.83602C1.12264 27.8726 0.544348 27.2966 0.544348 26.5861V25.6691ZM18.6726 24.6199H20.7083V17.8081C20.7083 14.9475 19.6763 12.5132 17.4584 11.6048C16.857 11.3586 15.39 11.2247 15.3894 11.2231C15.0714 11.2231 14.7805 11.0449 14.6371 10.762C14.4935 10.4794 14.5218 10.1404 14.7106 9.88534C15.3693 8.97853 15.7637 7.8259 15.7637 6.57185C15.7637 3.65482 13.6292 1.28654 11 1.28654C8.37085 1.28654 6.23629 3.65482 6.23629 6.57185C6.23629 7.8259 6.63071 8.97853 7.29039 9.88436C7.47953 10.14 7.50786 10.4797 7.3642 10.7626C7.22053 11.0459 6.92892 11.2244 6.61061 11.2247C6.61061 11.2247 5.14298 11.3586 4.54162 11.6048C2.3237 12.5132 1.29168 14.9475 1.29168 17.8081V24.6199H3.32738V18.0581C3.32738 17.703 3.61702 17.4149 3.97322 17.4149C4.32975 17.4149 4.61906 17.703 4.61906 18.0581V27.3026C4.61906 27.4115 4.66255 27.5162 4.73999 27.5933C4.81742 27.6701 4.92254 27.7135 5.03193 27.7135H16.9681C17.0775 27.7135 17.1826 27.6701 17.26 27.5933C17.3374 27.5162 17.3809 27.4115 17.3809 27.3026V18.0581C17.3809 17.703 17.6702 17.4149 18.0268 17.4149C18.383 17.4149 18.6726 17.703 18.6726 18.0581V24.6199ZM20.164 25.9064H18.6726V26.5861H20.164V25.9064ZM3.32738 26.5861V25.9064H1.83602V26.5861H3.32738ZM11 2.70633C9.04403 2.70633 7.38364 4.4018 7.38364 6.57185C7.38364 8.7419 9.04403 10.4377 11 10.4377C12.956 10.4377 14.6164 8.7419 14.6164 6.57185C14.6164 4.4018 12.956 2.70633 11 2.70633ZM11 3.99286C12.2831 3.99286 13.3247 5.14845 13.3247 6.57185C13.3247 7.99558 12.2831 9.15116 11 9.15116C9.71689 9.15116 8.67531 7.99558 8.67531 6.57185C8.67531 5.14845 9.71689 3.99286 11 3.99286Z" fill="black"/>
</svg>
