<svg width="16" height="16" viewBox="0 0 16 16" fill="none" xmlns="http://www.w3.org/2000/svg">
<path d="M1 0.35C0.641015 0.35 0.35 0.641015 0.35 1L0.35 6.85C0.35 7.20898 0.641015 7.5 1 7.5C1.35899 7.5 1.65 7.20898 1.65 6.85L1.65 1.65L6.85 1.65C7.20898 1.65 7.5 1.35899 7.5 1C7.5 0.641015 7.20898 0.35 6.85 0.35L1 0.35ZM14.435 15.085C14.794 15.085 15.085 14.794 15.085 14.435L15.085 8.58503C15.085 8.22604 14.794 7.93503 14.435 7.93503C14.076 7.93503 13.785 8.22604 13.785 8.58503L13.785 13.785L8.58503 13.785C8.22604 13.785 7.93503 14.076 7.93503 14.435C7.93503 14.794 8.22604 15.085 8.58503 15.085L14.435 15.085ZM1 1L0.540381 1.45962L13.9754 14.8946L14.435 14.435L14.8946 13.9754L1.45962 0.540381L1 1Z" fill="#1A1919"/>
</svg>
