<svg width="10" height="10" viewBox="0 0 10 10" fill="none" xmlns="http://www.w3.org/2000/svg">
<path d="M2.80566 4.20801C2.85024 4.05248 3.05894 4.05248 3.10352 4.20801C3.47162 5.50507 4.49399 6.52938 5.79297 6.89746C5.94832 6.94212 5.94838 7.14974 5.79297 7.19434C4.496 7.56347 3.47157 8.58558 3.10352 9.88477C3.05891 10.0392 2.85023 10.0393 2.80566 9.88477C2.43761 8.5866 1.41524 7.56347 0.116211 7.19434C-0.03887 7.14961 -0.038812 6.94224 0.116211 6.89746C1.41309 6.52939 2.43755 5.50709 2.80566 4.20801ZM8.56934 4.59961C8.58847 4.52785 8.68499 4.52785 8.70508 4.59961C8.87545 5.19932 9.34841 5.67147 9.94727 5.84082C10.019 5.8609 10.0189 5.95545 9.94727 5.97656C9.34829 6.14687 8.8754 6.61985 8.70508 7.21973C8.68499 7.29052 8.58847 7.29052 8.56934 7.21973C8.39899 6.61989 7.92609 6.14686 7.32715 5.97656C7.25588 5.95719 7.25575 5.86101 7.32715 5.84082C7.92601 5.67151 8.39894 5.19931 8.56934 4.59961ZM6.27246 0.0800781C6.29926 -0.0264921 6.42828 -0.0264921 6.45508 0.0800781C6.682 0.979861 7.31319 1.68718 8.11133 1.94336C8.20559 1.97373 8.20562 2.11712 8.11133 2.14746C7.31315 2.40366 6.68197 3.11197 6.45508 4.01074C6.42828 4.11731 6.29926 4.11731 6.27246 4.01074C6.04557 3.11089 5.4144 2.40366 4.61621 2.14746C4.52193 2.11712 4.52196 1.97374 4.61621 1.94336C5.41627 1.68718 6.04554 0.978757 6.27246 0.0800781Z" fill="url(#paint0_linear_578_14694)"/>
<defs>
<linearGradient id="paint0_linear_578_14694" x1="2.95493" y1="4.09115" x2="8.94847" y2="2.63138" gradientUnits="userSpaceOnUse">
<stop stop-color="#8648FF"/>
<stop offset="1" stop-color="#FF62B8"/>
</linearGradient>
</defs>
</svg>
