<svg width="19" height="19" viewBox="0 0 19 19" fill="none" xmlns="http://www.w3.org/2000/svg">
<path d="M2.375 4.75H3.95833H16.625" stroke="#1A1919" stroke-width="1.3" stroke-linecap="round" stroke-linejoin="round"/>
<path d="M6.33398 4.75065V3.16732C6.33398 2.74739 6.5008 2.34466 6.79773 2.04773C7.09466 1.7508 7.49739 1.58398 7.91732 1.58398H11.084C11.5039 1.58398 11.9066 1.7508 12.2036 2.04773C12.5005 2.34466 12.6673 2.74739 12.6673 3.16732V4.75065M15.0423 4.75065V15.834C15.0423 16.2539 14.8755 16.6566 14.5786 16.9536C14.2816 17.2505 13.8789 17.4173 13.459 17.4173H5.54232C5.12239 17.4173 4.71966 17.2505 4.42273 16.9536C4.1258 16.6566 3.95898 16.2539 3.95898 15.834V4.75065H15.0423Z" stroke="#1A1919" stroke-width="1.3" stroke-linecap="round" stroke-linejoin="round"/>
<path d="M11.084 8.70898V13.459" stroke="#1A1919" stroke-width="1.3" stroke-linecap="round" stroke-linejoin="round"/>
<path d="M7.91602 8.70898V13.459" stroke="#1A1919" stroke-width="1.3" stroke-linecap="round" stroke-linejoin="round"/>
</svg>
