<svg width="10" height="13" viewBox="0 0 10 13" fill="none" xmlns="http://www.w3.org/2000/svg">
<path d="M10 2.22222H0V3.33333H0.588889L1.04444 10.6611C1.07132 11.0846 1.25871 11.4819 1.5684 11.772C1.8781 12.062 2.28678 12.2231 2.71111 12.2222H7.28889C7.71322 12.2231 8.1219 12.062 8.4316 11.772C8.74129 11.4819 8.92868 11.0846 8.95556 10.6611L9.41111 3.33333H10V2.22222ZM4.44444 8.88889H3.33333V5.55556H4.44444V8.88889ZM6.66667 8.88889H5.55556V5.55556H6.66667V8.88889ZM3.33333 1.66667H2.22222C2.22222 1.22464 2.39782 0.800716 2.71038 0.488155C3.02294 0.175595 3.44686 0 3.88889 0H6.11111C6.55314 0 6.97706 0.175595 7.28962 0.488155C7.60218 0.800716 7.77778 1.22464 7.77778 1.66667H6.66667C6.66667 1.51932 6.60814 1.37802 6.50395 1.27383C6.39976 1.16964 6.25845 1.11111 6.11111 1.11111H3.88889C3.74155 1.11111 3.60024 1.16964 3.49605 1.27383C3.39187 1.37802 3.33333 1.51932 3.33333 1.66667Z" fill="#1A1919"/>
</svg>
