<svg width="24" height="19" viewBox="0 0 24 19" fill="none" xmlns="http://www.w3.org/2000/svg">
<path d="M19.9502 6.22828C18.8435 1.81968 14.3726 -0.857051 9.96398 0.249611C6.51877 1.11447 4.01716 4.09211 3.75941 7.63482C1.31317 8.03824 -0.342897 10.3483 0.0605157 12.7946C0.419131 14.9693 2.30353 16.562 4.5076 16.5532H8.24853V15.0568H4.5076C2.85476 15.0568 1.51485 13.7169 1.51485 12.0641C1.51485 10.4113 2.85476 9.07134 4.5076 9.07134C4.92083 9.07134 5.25578 8.73639 5.25578 8.32315C5.25204 4.60424 8.26382 1.58643 11.9827 1.58274C15.202 1.57951 17.9732 3.8554 18.596 7.01383C18.6574 7.32919 18.9134 7.5701 19.2319 7.61238C21.2774 7.90366 22.6993 9.79792 22.4081 11.8433C22.1466 13.68 20.5784 15.0476 18.7231 15.0568H15.7304V16.5532H18.7231C21.6156 16.5445 23.9533 14.1925 23.9446 11.3C23.9373 8.89229 22.2892 6.79966 19.9502 6.22828Z" fill="#1A0C0C"/>
<path d="M11.4586 8.77032L8.46582 11.7631L9.52076 12.818L11.2416 11.1047V18.2798H12.738V11.1047L14.4513 12.818L15.5063 11.7631L12.5135 8.77032C12.2217 8.48021 11.7504 8.48021 11.4586 8.77032Z" fill="#1A0C0C"/>
</svg>
